<mxfile host="app.diagrams.net" agent="Mozilla/5.0 (Windows NT 10.0; Win64; x64) AppleWebKit/537.36 (KHTML, like Gecko) Chrome/127.0.0.0 Safari/537.36" version="24.7.7" pages="2">
  <diagram name="Page-1" id="kRqZuVKPNIiaHH3DenAq">
    <mxGraphModel dx="2435" dy="1514" grid="0" gridSize="10" guides="1" tooltips="1" connect="1" arrows="1" fold="1" page="0" pageScale="1" pageWidth="850" pageHeight="1100" math="0" shadow="0">
      <root>
        <mxCell id="0" />
        <mxCell id="1" parent="0" />
        <mxCell id="r2L_OaiwC1QEzfux4jf1-40" value="VPC&lt;div&gt;CIDR Block 10.1.0.0/16&lt;/div&gt;" style="points=[[0,0],[0.25,0],[0.5,0],[0.75,0],[1,0],[1,0.25],[1,0.5],[1,0.75],[1,1],[0.75,1],[0.5,1],[0.25,1],[0,1],[0,0.75],[0,0.5],[0,0.25]];outlineConnect=0;gradientColor=none;html=1;whiteSpace=wrap;fontSize=12;fontStyle=0;container=1;pointerEvents=0;collapsible=0;recursiveResize=0;shape=mxgraph.aws4.group;grIcon=mxgraph.aws4.group_vpc2;strokeColor=#8C4FFF;fillColor=none;verticalAlign=top;align=left;spacingLeft=30;fontColor=#AAB7B8;dashed=0;" vertex="1" parent="1">
          <mxGeometry x="-459" y="-658" width="1360" height="992" as="geometry" />
        </mxCell>
        <mxCell id="r2L_OaiwC1QEzfux4jf1-13" value="Availability Zone:&amp;nbsp;&lt;span style=&quot;text-align: left;&quot;&gt;us-east-1b&lt;/span&gt;" style="fillColor=none;strokeColor=#147EBA;dashed=1;verticalAlign=top;fontStyle=0;fontColor=#147EBA;whiteSpace=wrap;html=1;" vertex="1" parent="1">
          <mxGeometry x="-262" y="-121" width="1087" height="385" as="geometry" />
        </mxCell>
        <mxCell id="r2L_OaiwC1QEzfux4jf1-14" value="Public subnet&lt;div&gt;10.1.11.0/24&lt;/div&gt;" style="points=[[0,0],[0.25,0],[0.5,0],[0.75,0],[1,0],[1,0.25],[1,0.5],[1,0.75],[1,1],[0.75,1],[0.5,1],[0.25,1],[0,1],[0,0.75],[0,0.5],[0,0.25]];outlineConnect=0;gradientColor=none;html=1;whiteSpace=wrap;fontSize=12;fontStyle=0;container=1;pointerEvents=0;collapsible=0;recursiveResize=0;shape=mxgraph.aws4.group;grIcon=mxgraph.aws4.group_security_group;grStroke=0;strokeColor=#7AA116;fillColor=#F2F6E8;verticalAlign=top;align=left;spacingLeft=30;fontColor=#248814;dashed=0;" vertex="1" parent="1">
          <mxGeometry x="-240" y="-97" width="489" height="329" as="geometry" />
        </mxCell>
        <mxCell id="r2L_OaiwC1QEzfux4jf1-4" value="Availability Zone:&amp;nbsp;&lt;span style=&quot;text-align: left;&quot;&gt;us-east-1a&lt;/span&gt;" style="fillColor=none;strokeColor=#147EBA;dashed=1;verticalAlign=top;fontStyle=0;fontColor=#147EBA;whiteSpace=wrap;html=1;" vertex="1" parent="1">
          <mxGeometry x="-270" y="-620" width="1111" height="385" as="geometry" />
        </mxCell>
        <mxCell id="r2L_OaiwC1QEzfux4jf1-45" style="edgeStyle=orthogonalEdgeStyle;rounded=0;orthogonalLoop=1;jettySize=auto;html=1;fontSize=12;startSize=8;endSize=8;" edge="1" parent="1" source="r2L_OaiwC1QEzfux4jf1-2" target="r2L_OaiwC1QEzfux4jf1-23">
          <mxGeometry relative="1" as="geometry">
            <Array as="points">
              <mxPoint x="-839" y="-97" />
              <mxPoint x="-839" y="-174" />
            </Array>
          </mxGeometry>
        </mxCell>
        <mxCell id="r2L_OaiwC1QEzfux4jf1-2" value="" style="sketch=0;outlineConnect=0;fontColor=#232F3E;gradientColor=none;fillColor=#232F3D;strokeColor=none;dashed=0;verticalLabelPosition=bottom;verticalAlign=top;align=center;html=1;fontSize=12;fontStyle=0;aspect=fixed;pointerEvents=1;shape=mxgraph.aws4.user;" vertex="1" parent="1">
          <mxGeometry x="-1085" y="-136" width="78" height="78" as="geometry" />
        </mxCell>
        <mxCell id="r2L_OaiwC1QEzfux4jf1-44" style="edgeStyle=orthogonalEdgeStyle;rounded=0;orthogonalLoop=1;jettySize=auto;html=1;fontSize=12;startSize=8;endSize=8;" edge="1" parent="1" source="r2L_OaiwC1QEzfux4jf1-3" target="r2L_OaiwC1QEzfux4jf1-23">
          <mxGeometry relative="1" as="geometry">
            <Array as="points">
              <mxPoint x="-841" y="-308" />
              <mxPoint x="-841" y="-174" />
            </Array>
          </mxGeometry>
        </mxCell>
        <mxCell id="r2L_OaiwC1QEzfux4jf1-3" value="" style="sketch=0;outlineConnect=0;fontColor=#232F3E;gradientColor=none;fillColor=#232F3D;strokeColor=none;dashed=0;verticalLabelPosition=bottom;verticalAlign=top;align=center;html=1;fontSize=12;fontStyle=0;aspect=fixed;pointerEvents=1;shape=mxgraph.aws4.client;" vertex="1" parent="1">
          <mxGeometry x="-1081" y="-346" width="78" height="76" as="geometry" />
        </mxCell>
        <mxCell id="r2L_OaiwC1QEzfux4jf1-6" value="Public subnet&lt;div&gt;10.1.10.0/24&lt;/div&gt;" style="points=[[0,0],[0.25,0],[0.5,0],[0.75,0],[1,0],[1,0.25],[1,0.5],[1,0.75],[1,1],[0.75,1],[0.5,1],[0.25,1],[0,1],[0,0.75],[0,0.5],[0,0.25]];outlineConnect=0;gradientColor=none;html=1;whiteSpace=wrap;fontSize=12;fontStyle=0;container=1;pointerEvents=0;collapsible=0;recursiveResize=0;shape=mxgraph.aws4.group;grIcon=mxgraph.aws4.group_security_group;grStroke=0;strokeColor=#7AA116;fillColor=#F2F6E8;verticalAlign=top;align=left;spacingLeft=30;fontColor=#248814;dashed=0;" vertex="1" parent="1">
          <mxGeometry x="-240" y="-591" width="489" height="321" as="geometry" />
        </mxCell>
        <mxCell id="r2L_OaiwC1QEzfux4jf1-11" value="" style="sketch=0;outlineConnect=0;fontColor=#232F3E;gradientColor=none;fillColor=#8C4FFF;strokeColor=none;dashed=0;verticalLabelPosition=bottom;verticalAlign=top;align=center;html=1;fontSize=12;fontStyle=0;aspect=fixed;pointerEvents=1;shape=mxgraph.aws4.nat_gateway;" vertex="1" parent="r2L_OaiwC1QEzfux4jf1-6">
          <mxGeometry x="104" y="107" width="78" height="78" as="geometry" />
        </mxCell>
        <mxCell id="r2L_OaiwC1QEzfux4jf1-7" value="Private subnet&lt;div&gt;10.1.20.0/24&lt;/div&gt;" style="points=[[0,0],[0.25,0],[0.5,0],[0.75,0],[1,0],[1,0.25],[1,0.5],[1,0.75],[1,1],[0.75,1],[0.5,1],[0.25,1],[0,1],[0,0.75],[0,0.5],[0,0.25]];outlineConnect=0;gradientColor=none;html=1;whiteSpace=wrap;fontSize=12;fontStyle=0;container=1;pointerEvents=0;collapsible=0;recursiveResize=0;shape=mxgraph.aws4.group;grIcon=mxgraph.aws4.group_security_group;grStroke=0;strokeColor=#00A4A6;fillColor=#E6F6F7;verticalAlign=top;align=left;spacingLeft=30;fontColor=#147EBA;dashed=0;" vertex="1" parent="1">
          <mxGeometry x="335" y="-591" width="461" height="327" as="geometry" />
        </mxCell>
        <mxCell id="r2L_OaiwC1QEzfux4jf1-9" value="" style="sketch=0;points=[[0,0,0],[0.25,0,0],[0.5,0,0],[0.75,0,0],[1,0,0],[0,1,0],[0.25,1,0],[0.5,1,0],[0.75,1,0],[1,1,0],[0,0.25,0],[0,0.5,0],[0,0.75,0],[1,0.25,0],[1,0.5,0],[1,0.75,0]];outlineConnect=0;fontColor=#232F3E;fillColor=#ED7100;strokeColor=#ffffff;dashed=0;verticalLabelPosition=bottom;verticalAlign=top;align=center;html=1;fontSize=12;fontStyle=0;aspect=fixed;shape=mxgraph.aws4.resourceIcon;resIcon=mxgraph.aws4.ec2;" vertex="1" parent="r2L_OaiwC1QEzfux4jf1-7">
          <mxGeometry x="70" y="110" width="78" height="78" as="geometry" />
        </mxCell>
        <mxCell id="r2L_OaiwC1QEzfux4jf1-12" value="RDS DB instance" style="outlineConnect=0;dashed=0;verticalLabelPosition=bottom;verticalAlign=top;align=center;html=1;shape=mxgraph.aws3.rds_db_instance;fillColor=#2E73B8;gradientColor=none;" vertex="1" parent="r2L_OaiwC1QEzfux4jf1-7">
          <mxGeometry x="327" y="115" width="49.5" height="66" as="geometry" />
        </mxCell>
        <mxCell id="r2L_OaiwC1QEzfux4jf1-8" value="" style="sketch=0;points=[[0,0,0],[0.25,0,0],[0.5,0,0],[0.75,0,0],[1,0,0],[0,1,0],[0.25,1,0],[0.5,1,0],[0.75,1,0],[1,1,0],[0,0.25,0],[0,0.5,0],[0,0.75,0],[1,0.25,0],[1,0.5,0],[1,0.75,0]];outlineConnect=0;fontColor=#232F3E;fillColor=#ED7100;strokeColor=#ffffff;dashed=0;verticalLabelPosition=bottom;verticalAlign=top;align=center;html=1;fontSize=12;fontStyle=0;aspect=fixed;shape=mxgraph.aws4.resourceIcon;resIcon=mxgraph.aws4.ec2;" vertex="1" parent="1">
          <mxGeometry x="116" y="-480" width="78" height="78" as="geometry" />
        </mxCell>
        <mxCell id="r2L_OaiwC1QEzfux4jf1-16" value="Private subnet&lt;div&gt;10.1.21.0/24&lt;/div&gt;" style="points=[[0,0],[0.25,0],[0.5,0],[0.75,0],[1,0],[1,0.25],[1,0.5],[1,0.75],[1,1],[0.75,1],[0.5,1],[0.25,1],[0,1],[0,0.75],[0,0.5],[0,0.25]];outlineConnect=0;gradientColor=none;html=1;whiteSpace=wrap;fontSize=12;fontStyle=0;container=1;pointerEvents=0;collapsible=0;recursiveResize=0;shape=mxgraph.aws4.group;grIcon=mxgraph.aws4.group_security_group;grStroke=0;strokeColor=#00A4A6;fillColor=#E6F6F7;verticalAlign=top;align=left;spacingLeft=30;fontColor=#147EBA;dashed=0;" vertex="1" parent="1">
          <mxGeometry x="335" y="-97" width="461" height="327" as="geometry" />
        </mxCell>
        <mxCell id="r2L_OaiwC1QEzfux4jf1-17" value="" style="sketch=0;points=[[0,0,0],[0.25,0,0],[0.5,0,0],[0.75,0,0],[1,0,0],[0,1,0],[0.25,1,0],[0.5,1,0],[0.75,1,0],[1,1,0],[0,0.25,0],[0,0.5,0],[0,0.75,0],[1,0.25,0],[1,0.5,0],[1,0.75,0]];outlineConnect=0;fontColor=#232F3E;fillColor=#ED7100;strokeColor=#ffffff;dashed=0;verticalLabelPosition=bottom;verticalAlign=top;align=center;html=1;fontSize=12;fontStyle=0;aspect=fixed;shape=mxgraph.aws4.resourceIcon;resIcon=mxgraph.aws4.ec2;" vertex="1" parent="r2L_OaiwC1QEzfux4jf1-16">
          <mxGeometry x="70" y="110" width="78" height="78" as="geometry" />
        </mxCell>
        <mxCell id="r2L_OaiwC1QEzfux4jf1-20" value="&lt;br&gt;&lt;span style=&quot;color: rgb(0, 0, 0); font-family: Helvetica; font-size: 12px; font-style: normal; font-variant-ligatures: normal; font-variant-caps: normal; font-weight: 400; letter-spacing: normal; orphans: 2; text-align: center; text-indent: 0px; text-transform: none; widows: 2; word-spacing: 0px; -webkit-text-stroke-width: 0px; white-space: nowrap; background-color: rgb(255, 255, 255); text-decoration-thickness: initial; text-decoration-style: initial; text-decoration-color: initial; display: inline !important; float: none;&quot;&gt;RDS DB instance&lt;/span&gt;&lt;br&gt;read replica" style="outlineConnect=0;dashed=0;verticalLabelPosition=bottom;verticalAlign=top;align=center;html=1;shape=mxgraph.aws3.rds_db_instance_read_replica;fillColor=#2E73B8;gradientColor=none;" vertex="1" parent="r2L_OaiwC1QEzfux4jf1-16">
          <mxGeometry x="327" y="114" width="49.5" height="66" as="geometry" />
        </mxCell>
        <mxCell id="r2L_OaiwC1QEzfux4jf1-19" value="" style="sketch=0;points=[[0,0,0],[0.25,0,0],[0.5,0,0],[0.75,0,0],[1,0,0],[0,1,0],[0.25,1,0],[0.5,1,0],[0.75,1,0],[1,1,0],[0,0.25,0],[0,0.5,0],[0,0.75,0],[1,0.25,0],[1,0.5,0],[1,0.75,0]];outlineConnect=0;fontColor=#232F3E;fillColor=#ED7100;strokeColor=#ffffff;dashed=0;verticalLabelPosition=bottom;verticalAlign=top;align=center;html=1;fontSize=12;fontStyle=0;aspect=fixed;shape=mxgraph.aws4.resourceIcon;resIcon=mxgraph.aws4.ec2;" vertex="1" parent="1">
          <mxGeometry x="116" y="19" width="78" height="78" as="geometry" />
        </mxCell>
        <mxCell id="r2L_OaiwC1QEzfux4jf1-35" style="edgeStyle=orthogonalEdgeStyle;rounded=0;orthogonalLoop=1;jettySize=auto;html=1;fontSize=12;startSize=8;endSize=8;" edge="1" parent="1" source="r2L_OaiwC1QEzfux4jf1-22" target="r2L_OaiwC1QEzfux4jf1-25">
          <mxGeometry relative="1" as="geometry" />
        </mxCell>
        <mxCell id="r2L_OaiwC1QEzfux4jf1-22" value="Auto Scaling group" style="points=[[0,0],[0.25,0],[0.5,0],[0.75,0],[1,0],[1,0.25],[1,0.5],[1,0.75],[1,1],[0.75,1],[0.5,1],[0.25,1],[0,1],[0,0.75],[0,0.5],[0,0.25]];outlineConnect=0;gradientColor=none;html=1;whiteSpace=wrap;fontSize=12;fontStyle=0;container=1;pointerEvents=0;collapsible=0;recursiveResize=0;shape=mxgraph.aws4.groupCenter;grIcon=mxgraph.aws4.group_auto_scaling_group;grStroke=1;strokeColor=#D86613;fillColor=none;verticalAlign=top;align=center;fontColor=#D86613;dashed=1;spacingTop=25;" vertex="1" parent="1">
          <mxGeometry x="89" y="-537" width="130" height="729" as="geometry" />
        </mxCell>
        <mxCell id="r2L_OaiwC1QEzfux4jf1-28" style="edgeStyle=orthogonalEdgeStyle;rounded=0;orthogonalLoop=1;jettySize=auto;html=1;fontSize=12;startSize=8;endSize=8;" edge="1" parent="1" source="r2L_OaiwC1QEzfux4jf1-21" target="r2L_OaiwC1QEzfux4jf1-12">
          <mxGeometry relative="1" as="geometry">
            <Array as="points">
              <mxPoint x="527" y="-443" />
              <mxPoint x="527" y="-443" />
            </Array>
          </mxGeometry>
        </mxCell>
        <mxCell id="r2L_OaiwC1QEzfux4jf1-37" style="edgeStyle=orthogonalEdgeStyle;rounded=0;orthogonalLoop=1;jettySize=auto;html=1;fontSize=12;startSize=8;endSize=8;" edge="1" parent="1" source="r2L_OaiwC1QEzfux4jf1-21" target="r2L_OaiwC1QEzfux4jf1-11">
          <mxGeometry relative="1" as="geometry">
            <Array as="points">
              <mxPoint x="443" y="-553" />
              <mxPoint x="-97" y="-553" />
            </Array>
          </mxGeometry>
        </mxCell>
        <mxCell id="r2L_OaiwC1QEzfux4jf1-21" value="Auto Scaling group" style="points=[[0,0],[0.25,0],[0.5,0],[0.75,0],[1,0],[1,0.25],[1,0.5],[1,0.75],[1,1],[0.75,1],[0.5,1],[0.25,1],[0,1],[0,0.75],[0,0.5],[0,0.25]];outlineConnect=0;gradientColor=none;html=1;whiteSpace=wrap;fontSize=12;fontStyle=0;container=1;pointerEvents=0;collapsible=0;recursiveResize=0;shape=mxgraph.aws4.groupCenter;grIcon=mxgraph.aws4.group_auto_scaling_group;grStroke=1;strokeColor=#D86613;fillColor=none;verticalAlign=top;align=center;fontColor=#D86613;dashed=1;spacingTop=25;" vertex="1" parent="1">
          <mxGeometry x="378" y="-538" width="130" height="729" as="geometry" />
        </mxCell>
        <mxCell id="r2L_OaiwC1QEzfux4jf1-32" style="edgeStyle=orthogonalEdgeStyle;rounded=0;orthogonalLoop=1;jettySize=auto;html=1;fontSize=12;startSize=8;endSize=8;startArrow=classic;startFill=1;" edge="1" parent="1" source="r2L_OaiwC1QEzfux4jf1-23" target="r2L_OaiwC1QEzfux4jf1-27">
          <mxGeometry relative="1" as="geometry" />
        </mxCell>
        <mxCell id="r2L_OaiwC1QEzfux4jf1-23" value="" style="outlineConnect=0;dashed=0;verticalLabelPosition=bottom;verticalAlign=top;align=center;html=1;shape=mxgraph.aws3.cloudformation;fillColor=#759C3E;gradientColor=none;" vertex="1" parent="1">
          <mxGeometry x="-688" y="-220" width="76.5" height="93" as="geometry" />
        </mxCell>
        <mxCell id="r2L_OaiwC1QEzfux4jf1-31" style="edgeStyle=orthogonalEdgeStyle;rounded=0;orthogonalLoop=1;jettySize=auto;html=1;fontSize=12;startSize=8;endSize=8;" edge="1" parent="1" source="r2L_OaiwC1QEzfux4jf1-24" target="r2L_OaiwC1QEzfux4jf1-23">
          <mxGeometry relative="1" as="geometry" />
        </mxCell>
        <mxCell id="r2L_OaiwC1QEzfux4jf1-24" value="" style="sketch=0;outlineConnect=0;fontColor=#232F3E;gradientColor=none;fillColor=#7AA116;strokeColor=none;dashed=0;verticalLabelPosition=bottom;verticalAlign=top;align=center;html=1;fontSize=12;fontStyle=0;aspect=fixed;pointerEvents=1;shape=mxgraph.aws4.bucket;" vertex="1" parent="1">
          <mxGeometry x="-431" y="19" width="75" height="78" as="geometry" />
        </mxCell>
        <mxCell id="r2L_OaiwC1QEzfux4jf1-36" style="edgeStyle=orthogonalEdgeStyle;rounded=0;orthogonalLoop=1;jettySize=auto;html=1;fontSize=12;startSize=8;endSize=8;" edge="1" parent="1" source="r2L_OaiwC1QEzfux4jf1-25" target="r2L_OaiwC1QEzfux4jf1-21">
          <mxGeometry relative="1" as="geometry" />
        </mxCell>
        <mxCell id="r2L_OaiwC1QEzfux4jf1-25" value="Application Load Balancer" style="outlineConnect=0;dashed=0;verticalLabelPosition=bottom;verticalAlign=top;align=center;html=1;shape=mxgraph.aws3.application_load_balancer;fillColor=#F58536;gradientColor=none;" vertex="1" parent="1">
          <mxGeometry x="266" y="-217" width="69" height="72" as="geometry" />
        </mxCell>
        <mxCell id="r2L_OaiwC1QEzfux4jf1-34" style="edgeStyle=orthogonalEdgeStyle;rounded=0;orthogonalLoop=1;jettySize=auto;html=1;fontSize=12;startSize=8;endSize=8;" edge="1" parent="1" source="r2L_OaiwC1QEzfux4jf1-26" target="r2L_OaiwC1QEzfux4jf1-22">
          <mxGeometry relative="1" as="geometry" />
        </mxCell>
        <mxCell id="r2L_OaiwC1QEzfux4jf1-26" value="Application Load Balancer" style="outlineConnect=0;dashed=0;verticalLabelPosition=bottom;verticalAlign=top;align=center;html=1;shape=mxgraph.aws3.application_load_balancer;fillColor=#F58536;gradientColor=none;" vertex="1" parent="1">
          <mxGeometry x="-71" y="-220.5" width="69" height="72" as="geometry" />
        </mxCell>
        <mxCell id="r2L_OaiwC1QEzfux4jf1-33" style="edgeStyle=none;curved=1;rounded=0;orthogonalLoop=1;jettySize=auto;html=1;fontSize=12;startSize=8;endSize=8;" edge="1" parent="1" source="r2L_OaiwC1QEzfux4jf1-27" target="r2L_OaiwC1QEzfux4jf1-26">
          <mxGeometry relative="1" as="geometry" />
        </mxCell>
        <mxCell id="r2L_OaiwC1QEzfux4jf1-27" value="" style="outlineConnect=0;dashed=0;verticalLabelPosition=bottom;verticalAlign=top;align=center;html=1;shape=mxgraph.aws3.internet_gateway;fillColor=#F58534;gradientColor=none;" vertex="1" parent="1">
          <mxGeometry x="-428" y="-211" width="69" height="72" as="geometry" />
        </mxCell>
        <mxCell id="r2L_OaiwC1QEzfux4jf1-29" style="edgeStyle=orthogonalEdgeStyle;rounded=0;orthogonalLoop=1;jettySize=auto;html=1;fontSize=12;startSize=8;endSize=8;" edge="1" parent="1" source="r2L_OaiwC1QEzfux4jf1-12" target="r2L_OaiwC1QEzfux4jf1-21">
          <mxGeometry relative="1" as="geometry">
            <Array as="points">
              <mxPoint x="534" y="-443" />
              <mxPoint x="534" y="-443" />
            </Array>
          </mxGeometry>
        </mxCell>
        <mxCell id="r2L_OaiwC1QEzfux4jf1-30" style="edgeStyle=none;curved=1;rounded=0;orthogonalLoop=1;jettySize=auto;html=1;fontSize=12;startSize=8;endSize=8;" edge="1" parent="1" source="r2L_OaiwC1QEzfux4jf1-12" target="r2L_OaiwC1QEzfux4jf1-20">
          <mxGeometry relative="1" as="geometry" />
        </mxCell>
        <mxCell id="r2L_OaiwC1QEzfux4jf1-39" style="edgeStyle=orthogonalEdgeStyle;rounded=0;orthogonalLoop=1;jettySize=auto;html=1;fontSize=12;startSize=8;endSize=8;" edge="1" parent="1" source="r2L_OaiwC1QEzfux4jf1-11" target="r2L_OaiwC1QEzfux4jf1-27">
          <mxGeometry relative="1" as="geometry" />
        </mxCell>
        <mxCell id="r2L_OaiwC1QEzfux4jf1-41" value="Region: us-east-1" style="points=[[0,0],[0.25,0],[0.5,0],[0.75,0],[1,0],[1,0.25],[1,0.5],[1,0.75],[1,1],[0.75,1],[0.5,1],[0.25,1],[0,1],[0,0.75],[0,0.5],[0,0.25]];outlineConnect=0;gradientColor=none;html=1;whiteSpace=wrap;fontSize=12;fontStyle=0;container=1;pointerEvents=0;collapsible=0;recursiveResize=0;shape=mxgraph.aws4.group;grIcon=mxgraph.aws4.group_region;strokeColor=#00A4A6;fillColor=none;verticalAlign=top;align=left;spacingLeft=30;fontColor=#147EBA;dashed=1;" vertex="1" parent="1">
          <mxGeometry x="-543" y="-706" width="1490" height="1094" as="geometry" />
        </mxCell>
        <mxCell id="r2L_OaiwC1QEzfux4jf1-43" value="AWS Cloud" style="points=[[0,0],[0.25,0],[0.5,0],[0.75,0],[1,0],[1,0.25],[1,0.5],[1,0.75],[1,1],[0.75,1],[0.5,1],[0.25,1],[0,1],[0,0.75],[0,0.5],[0,0.25]];outlineConnect=0;gradientColor=none;html=1;whiteSpace=wrap;fontSize=12;fontStyle=0;container=1;pointerEvents=0;collapsible=0;recursiveResize=0;shape=mxgraph.aws4.group;grIcon=mxgraph.aws4.group_aws_cloud_alt;strokeColor=#232F3E;fillColor=none;verticalAlign=top;align=left;spacingLeft=30;fontColor=#232F3E;dashed=0;" vertex="1" parent="1">
          <mxGeometry x="-733" y="-778" width="1728" height="1226" as="geometry" />
        </mxCell>
      </root>
    </mxGraphModel>
  </diagram>
  <diagram id="IcBK-w0KFX7hzmmXEHFw" name="Page-2">
    <mxGraphModel grid="0" page="0" gridSize="10" guides="1" tooltips="1" connect="1" arrows="1" fold="1" pageScale="1" pageWidth="850" pageHeight="1100" math="0" shadow="0">
      <root>
        <mxCell id="0" />
        <mxCell id="1" parent="0" />
      </root>
    </mxGraphModel>
  </diagram>
</mxfile>
